<?xml version="1.0" encoding="utf-8"?>
<!-- Generator: Adobe Illustrator 15.0.0, SVG Export Plug-In . SVG Version: 6.00 Build 0)  -->
<!DOCTYPE svg PUBLIC "-//W3C//DTD SVG 1.1//EN" "http://www.w3.org/Graphics/SVG/1.1/DTD/svg11.dtd">
<svg version="1.1" id="Layer_1" xmlns="http://www.w3.org/2000/svg" xmlns:xlink="http://www.w3.org/1999/xlink" x="0px" y="0px"
	 width="72px" height="105.38px" viewBox="0 0 72 105.38" enable-background="new 0 0 72 105.38" xml:space="preserve">
<g>
	<polygon fill="#000000" points="70.589% 8.755%, 70.647% 8.755%, 70.589% 9.043%, 70.675% 9.245%, 70.704% 10.224%, 70.704% 10.886%, 70.732% 11.203%, 70.617% 11.549%, 70.732% 11.837%, 70.646% 12.614%, 70.790% 12.816%, 70.819% 13.191%, 70.877% 13.508%, 70.732% 13.883%, 70.934% 15.639%, 70.876% 16.273%, 71.049% 17.252%, 70.991% 17.540%, 71.106% 17.626%, 71.077% 17.943%, 71.135% 18.692%, 71.077% 20.420%, 71.019% 21.514%, 71.164% 21.946%, 70.962% 22.435%, 71.077% 22.752%, 71.049% 24.077%, 71.135% 24.365%, 71.107% 24.740%, 71.193% 25.115%, 71.049% 25.662%, 70.847% 26.209%, 71.135% 27.505%, 70.934% 27.937%, 70.962% 28.369%, 70.789% 28.599%, 71.019% 28.944%, 71.077% 29.463%, 70.847% 29.809%, 71.049% 30.039%, 70.904% 30.355%, 71.134% 30.787%, 71.192% 31.421%, 71.250% 32.227%, 71.337% 32.861%, 71.222% 33.293%, 71.308% 33.552%, 71.193% 34.128%, 71.251% 34.474%, 71.107% 35.165%, 71.280% 35.971%, 71.135% 36.173%, 71.250% 36.720%, 71.164% 37.180%, 71.279% 38.217%, 71.192% 38.620%, 71.279% 39.110%, 71.192% 39.456%, 71.337% 40.550%, 71.250% 42.192%, 71.192% 42.451%, 71.250% 42.595%, 71.106% 42.912%, 71.221% 43.401%, 71.192% 43.631%, 71.307% 44.236%, 71.249% 44.899%, 71.278% 45.964%, 71.191% 46.655%, 71.249% 47.029%, 71.134% 47.432%, 71.221% 47.634%, 71.134% 47.922%, 71.192% 48.440%, 71.307% 48.786%, 71.221% 48.901%, 71.336% 49.247%, 71.364% 50.053%, 71.336% 50.888%, 71.278% 51.665%, 71.364% 52.097%, 71.336% 52.472%, 71.364% 52.818%, 71.249% 53.048%, 71.221% 53.509%, 71.279% 53.624%, 71.192% 53.768%, 71.250% 54.056%, 71.135% 54.517%, 71.222% 54.776%, 71.164% 55.237%, 71.279% 55.669%, 71.192% 56.072%, 71.307% 57.541%, 71.192% 57.771%, 71.307% 58.290%, 71.249% 58.435%, 71.307% 58.579%, 71.192% 59.126%, 71.307% 59.386%, 71.249% 59.501%, 71.422% 59.990%, 71.394% 60.307%, 71.480% 60.335%, 71.394% 60.939%, 71.509% 61.112%, 71.422% 61.545%, 71.537% 62.351%, 71.393% 62.870%, 71.421% 63.360%, 71.421% 63.935%, 71.306% 64.944%, 71.421% 65.232%, 71.162% 65.952%, 70.960% 66.153%, 71.162% 66.499%, 71.047% 66.960%, 71.133% 67.449%, 71.018% 67.997%, 71.191% 68.227%, 71.191% 68.573%, 71.278% 68.832%, 71.191% 68.918%, 70.903% 70.157%, 70.961% 70.704%, 71.106% 70.819%, 71.192% 71.712%, 71.452% 72.720%, 71.250% 73.354%, 71.423% 73.614%, 71.365% 74.391%, 71.394% 74.823%, 71.134% 75.284%, 71.249% 75.630%, 71.249% 76.091%, 71.048% 76.465%, 71.192% 76.898%, 71.164% 77.157%, 71.279% 77.416%, 71.279% 77.762%, 71.423% 78.914%, 71.395% 79.375%, 71.481% 79.548%, 71.280% 81.045%, 71.453% 81.478%, 71.165% 81.938%, 71.251% 82.111%, 71.193% 82.457%, 71.423% 82.918%, 71.423% 83.868%, 71.653% 84.934%, 71.480% 85.711%, 71.192% 86.172%, 71.337% 86.431%, 71.308% 87.065%, 71.337% 87.842%, 71.423% 88.130%, 71.395% 89.195%, 71.568% 89.570%, 71.338% 90.030%, 71.539% 90.117%, 71.424% 91.125%, 71.366% 91.932%, 71.539% 92.335%, 71.511% 92.623%, 71.655% 92.882%, 71.511% 94.150%, 71.597% 94.784%, 71.539% 95.100%, 71.626% 95.561%, 71.511% 96.281%, 71.396% 96.511%, 71.424% 97.173%, 71.309% 97.576%, 71.309% 97.951%, 70.445% 98.872%, 70.071% 98.987%, 69.783% 99.189%, 68.976% 99.592%, 68.948% 99.678%, 68.545% 99.793%, 68.199% 99.937%, 67.998% 100.139%, 67.595% 100.225%, 66.645% 100.744%, 66.126% 100.946%, 66.068% 101.061%, 65.635% 101.147%, 65.348% 101.320%, 64.109% 101.924%, 63.821% 102.184%, 63.476% 102.242%, 63.159% 102.443%, 62.785% 102.558%, 62.497% 102.788%, 62.065% 102.990%, 61.805% 103.105%, 61.575% 103.219%, 61.460% 103.075%, 61.028% 103.133%, 60.711% 103.449%, 60.424% 103.334%, 59.991% 103.248%, 59.559% 103.161%, 59.184% 103.449%, 58.897% 103.507%, 57.946% 103.536%, 53.367% 103.680%, 52.071% 103.680%, 44.640% 103.652%, 37.008% 103.738%, 35.914% 103.680%, 34.272% 103.767%, 27.533% 103.940%, 24.480% 103.968%, 23.183% 104.026%, 18.374% 104.228%, 14.054% 104.256%, 3.686% 104.055%, 0.834% 103.940%, 0.575% 101.060%, 0.575% 97.201%, 0.604% 83.089%, 0.575% 81.793%, 0.575% 76.609%, 0.633% 59.127%, 0.633% 51.092%, 0.662% 49.940%, 0.662% 48.875%, 0.691% 39.025%, 0.806% 27.678%, 0.748% 26.584%, 0.834% 23.905%, 0.863% 20.593%, 0.921% 14.199%, 1.094% 6.740%, 1.353% 6.077%, 1.728% 6.077%, 2.419% 5.674%, 2.764% 5.588%, 2.880% 5.501%, 2.995% 5.530%, 3.370% 5.213%, 3.658% 5.126%, 4.176% 4.781%, 4.435% 4.723%, 5.299% 4.204%, 5.645% 4.090%, 5.760% 3.917%, 5.962% 3.917%, 6.192% 3.744%, 6.480% 3.629%, 6.624% 3.427%, 6.941% 3.283%, 7.200% 3.110%, 7.718% 3.024%, 7.891% 2.851%, 8.150% 2.851%, 8.092% 2.793%, 8.237% 2.765%, 8.640% 2.333%, 8.842% 2.391%, 9.475% 1.959%, 11.203% 1.844%, 11.808% 1.786%, 13.450% 1.815%, 22.637% 1.786%, 30.529% 1.728%, 40.695% 1.642%, 42.941% 1.671%, 46.484% 1.613%, 50.084% 1.584%, 54.231% 1.555%, 55.527% 1.497%, 64.138% 1.497%, 65.002% 1.439%, 65.175% 1.525%, 65.520% 1.467%, 67.133% 1.467%, 67.507% 1.553%, 67.824% 2.043%, 68.198% 2.273%, 68.428% 2.618%, 68.745% 2.848%, 68.859% 2.992%, 69.032% 3.078%, 69.032% 3.308%, 69.292% 3.452%, 69.551% 3.769%, 69.897% 3.999%, 69.926% 4.200%, 70.214% 4.258%, 70.272% 4.344%, 70.559% 4.690%, 70.444% 5.755%, 70.502% 6.101%, 70.416% 6.303%, 70.560% 6.591%, 70.445% 7.052%, 70.503% 7.369%, 70.618% 7.541%, 70.503% 7.916%, 70.590% 8.146%, 70.532% 8.290%, 70.589% 8.755%"/>
</g>
</svg>
