<svg xmlns="http://www.w3.org/2000/svg" xmlns:xlink="http://www.w3.org/1999/xlink" viewBox="0 0 612 792"><defs><style>.cls-1,.cls-5{fill:#fff;}.cls-2{fill:url(#linear-gradient);}.cls-3{fill:url(#linear-gradient-2);}.cls-4{fill:#202e71;}.cls-5{stroke:#fff;stroke-width:5px;}</style><linearGradient id="linear-gradient" x1="93.97" y1="594.87" x2="549.82" y2="382.3" gradientUnits="userSpaceOnUse"><stop offset="0" stop-color="#f8d17c"/><stop offset="0.13" stop-color="#fbe6b7"/><stop offset="0.39" stop-color="#f3a400"/><stop offset="0.64" stop-color="#fdf4dc"/><stop offset="1" stop-color="#f3a400"/></linearGradient><linearGradient id="linear-gradient-2" x1="155.92" y1="402.98" x2="497.31" y2="562.17" gradientTransform="matrix(1, 0, 0, -1, 0, 791.28)" xlink:href="#linear-gradient"/></defs><title>Artboard 1</title><g id="Layer_2" data-name="Layer 2"><path class="cls-1" d="M469.64,155.85s6.63,147.34,0,195.86c-21.15,154.62-160.7,196.91-160.7,196.91s-142.2-39.38-159.12-196.39c-5.12-47.57,0-196.39,0-196.39H469.64m10.11-10.57H139.61l-.35,10.21c-.21,6.11-5.09,150.12.05,197.88,4,37.37,15.29,71.45,33.48,101.29a235.78,235.78,0,0,0,56.42,63c38.88,30.42,75.37,40.75,76.91,41.18l3,.82,2.93-.89c1.5-.46,37.27-11.51,75.94-42.32a250.22,250.22,0,0,0,56.63-63.11c18.55-29.71,30.51-63.41,35.54-100.17,6.69-48.9.36-191.71.09-197.77l-.45-10.1Z"/><g id="Layer_3" data-name="Layer 3"><path class="cls-2" d="M68.89,406.26a459.19,459.19,0,0,0,21.23,76.92l10.9-2.56c14.8,31.35,32.57,59.73,57,81.4,7.52-6.41,16.52-16.11,25.64-23.72,34.31,32.59,92,57.48,159,46.15,37.85-6.4,68.79-26.91,92.3-46.79,9.26,8.44,18.61,18.3,26.28,24.36,23.3-22.21,41.38-49.64,55.77-80.76,4.78-.51,6.53,2,10.26,2.56,10.9-20.08,14.28-47.68,18.59-74.35,4.73,4.74,6.28,9.32,8.33,14.74,3.52,9.31,7.38,19.07,9,31.41l16.66-9c-2.78,32.9-12.61,58.75-26.28,80.76-4.1-.7-7.59-2.1-10.26-2.56C514.38,573.06,478.81,618,426,640.21c-3.21-3.95-6.47-10.46-10.9-16-51.37,31.56-159.37,32-211.52-.64-3.29,4-6.47,10.85-10.9,16C138.92,616,104.1,573.46,75.38,524.83a61.21,61.21,0,0,1-10.9,1.92c-14.72-21.6-24.81-47.83-28.2-80.76,9,5,10.86,6.66,16.67,9.61l8.39-25.94"/></g></g><g id="Layer_1" data-name="Layer 1"><g id="Trace_Over" data-name="Trace Over"><path class="cls-3" d="M307.67,542.82c-1.41-.39-35-9.9-71-38.07a218,218,0,0,1-52.17-58.23c-16.82-27.59-27.24-59.13-31-93.74-4.83-44.83-.22-180.7,0-186.46l.17-4.83H465.78l.21,4.77c.26,5.71,6.22,140.34,0,186.15-4.66,34.06-15.73,65.28-32.9,92.77a231.68,231.68,0,0,1-52.44,58.43c-35.84,28.55-68.78,38.73-70.17,39.15l-1.39.42Z"/><path class="cls-4" d="M461,166.5s6.27,139.36,0,185.25C441,498,309,538,309,538S174.5,500.75,158.5,352.25c-4.85-45,0-185.75,0-185.75H461m9.56-10H148.84l-.33,9.66c-.2,5.78-4.82,142,.05,187.17,3.81,35.35,14.46,67.58,31.67,95.81a223,223,0,0,0,53.36,59.56c36.77,28.77,71.29,38.55,72.74,38.95l2.79.77,2.77-.84c1.42-.43,35.25-10.89,71.83-40a236.67,236.67,0,0,0,53.56-59.69c17.55-28.1,28.86-60,33.61-94.74,6.33-46.25.34-181.33.08-187.05l-.43-9.55Z"/><path class="cls-4" d="M477.25,149.5l.73,16.24c.26,5.75,6.27,141.44-.14,188.32-11.09,81.13-54.93,131.22-89.75,159-37.61,30-72.69,40.81-74.16,41.25l-4.72,1.43-4.75-1.32c-1.51-.42-37.33-10.56-75.19-40.18-35.08-27.45-78.78-77.52-87.68-160.13-4.92-45.67-.29-182.36-.09-188.16l.57-16.42H477.25m9.56-10H132.41l-.33,9.66-.57,16.42c-.2,5.82-4.86,143.19.14,189.57,9.27,86.08,54.85,138.29,91.46,166.93,39.38,30.81,77.09,41.5,78.68,41.94l4.76,1.32,2.8.77,2.77-.84,4.72-1.43c1.55-.47,38.4-11.86,77.49-43,36.25-28.88,81.89-81,93.43-165.43,6.55-47.85.48-184.34.22-190.12L487.24,149l-.43-9.55Z"/><path class="cls-5" d="M393.15,249.6c4.13,7.48,10,13.21,16.78,18.07,12.43-4.8,39.34-9.08,35.5,12.91-12.28-1.35-13.52,10-22.59,10.33-5.6.22-13.41-6.92-17.42-10.33-6.25-5.31-12.09-14.53-20-18.07C339,313.76,293.85,366.29,247.93,418c27.3,7.86,59.11,37.55,92.29,23.23a47.82,47.82,0,0,0-.64-10.33c15.81,1,26.13-3.56,38.08-6.45-3,19.18-11.47,32.85-24.52,42-2.8-4.51-3.45-11.18-7.74-14.2-28.12,16.05-60.68,4.13-82.61-7.75-3.87-2.09-7.48-5.29-11-6.45-11.16-3.7-23.91-.62-36.14.65,1.65-42.56-31.4-69.76-27.75-115.52a86.06,86.06,0,0,1,9.68-33.56c-2.81-1.5-6.16-2.45-7.1-5.81,8.28-8.72,18.52-15.47,29.69-21.3-1.49,11.63-4.23,22-7.1,32.27-2.2,1.23-4.78-1.86-8.39-1.29C185.43,331.4,219.46,367.85,227.28,400c1,2.45,4.52,2.36,5.16,5.16,40.29-40.92,81.52-91.49,122-136.82,3.78-4.24,15.94-15.22,15.49-21.3-.43-5.75-10.69-13.16-14.2-16.78-5.64-5.81-10-10.86-15.49-15.49-3.16,4.15-3.81,10.82-7.74,14.2-9.59-1-18.07-9.15-13.55-20,4.6-.44,5.79,2.18,9,1.94,5.16-.39,9.16-6.75,14.2-6.45,6,.36,16.29,13.76,20,17.43,7.11,7,13.9,12.08,19.36,18.07,8.23-4.25,13.23-11.72,20.65-16.78-4.41-9.08-5.36-20.31-1.94-27.11,10.13-20.09,49.25-8,39.37,20-1.54,4.36-8.28,10.85-12.26,12.26-5.32,1.88-10.51-1.61-17.42,0S397.09,243.66,393.15,249.6Zm14.2-51c-5.93,8.88.29,22.2,10.33,23.23,12.06,1.24,17.38-8.73,14.85-21.3C426.94,191,413.45,189.45,407.35,198.61Z"/><path class="cls-4" d="M262.41,416.51c15.75,6.19,34.74,20.6,55.77,22.43,6.2.54,12.45.13,16.67-2.56-1.39-4.17-4.48-6.63-3.85-12.82,19.94,4.87,39.34-4.65,55.12-8.33-.55,29.5-12.76,52.51-33.33,64.1-2.9-5-6.07-9.74-7.69-16-19.54,8.72-51.36,3.81-68.58-3.85-8.27-3.68-15.33-10.8-24.36-13.46-12.19-3.6-25.6-.12-39.1,3.85.74-4.52-1.78-2-3.21-3.85,5.77-28.2-10.56-50.23-17.95-72.43-2.18-6.54-5.48-13-7.05-19.23-4.92-19.61-1.24-41.26,5.13-60.25-3.26-1.16-10-2.06-10.26-6.41-.24-3.52,15.57-15.73,18.59-17.95,8.18-6,17-9.84,23.07-13.46,2.92-1.74,6.1-6.35,9-4.49-5.59,16-5.35,37.81-8.33,56.41-5.07.16-6.46-3.37-10.26-4.49-13.6,31.5,13.38,60.79,21.79,91,17.31-17.31,11.66-11.19,17.31-17.31,16.65-18,34.25-37.61,50-57-9.79.61-15.33-4.62-18.59-12.18-7.89-1.51-16.17-2.63-19.23-9,2.32-5.64,13.9.93,21.79-.64,3.81-.76,4.54-3.95,7.69-5.13,5.86-2.19,9.34-.76,14.74,1.28,3.3,1.24,6.45,6.19,10.26,5.77,3.29-.37,9.75-9.44,12.18-12.18,11.06-12.47,24-27.91,34-39.1-5.05-8.2-12.63-13.87-19.23-20.51-1.92,3.85-3.34,8.2-7.05,10.26-17.61.16-31.36-17.25-21.79-34,4.92-2.35,6.91.92,10.9.64,5.85-.41,9.5-5.9,15.38-5.77,8.26.18,15.8,10,21.15,15.38,6.61,6.61,12.48,12.59,18.59,17.31,5.45-2.45,8.91-6.9,12.82-10.9-4.45-8.68-2.88-23.1,1.92-30.12,11.14-16.3,41.12-10.52,49.35,6.41,4.06,8.34,5.68,17.93,0,28.2a21.43,21.43,0,0,1-14.1,10.9c2.8,5.11,3.78,12,3.85,19.87,10.23,5.11,25.39,20.47,14.1,33.33-9.95-2.69-15.21,10.15-24.36,10.9-6.43.52-9-3.35-14.74-7.69-1,10-8.6,20.77-17.95,21.79-5.56.61-8-3.93-14.1-3.85-4.61,2.84-2.59,7.46-5.77,11.54-5.13,6.57-20.6,4.89-26.92.64m63.45-94.22c6.72-1.63,12.25,1.75,17.31,0,8.7-3,16.3-15.7,12.18-28.84-5.22-16.65-33.76-16.66-39.74-1.92-3.35,8.26-.76,18,2.56,25.64-7.37,5-12.34,12.45-20.51,16.67-5.41-5.95-12.16-11-19.23-17.95-3.72-3.67-13.85-16.94-19.87-17.31-5.14-.31-8.91,6-14.1,6.41-3.1.25-4.43-2.55-9-1.92-4.49,10.79,3.93,18.91,13.46,19.87,3.9-3.36,4.55-10,7.69-14.1,5.47,4.6,9.8,9.62,15.38,15.38,3.48,3.59,13.67,11,14.1,16.66.45,6-11.63,16.95-15.38,21.15-40.18,45-81.16,95.21-121.14,135.89-.63-2.78-4.15-2.69-5.13-5.13-7.77-31.91-41.57-68.1-22.43-105.76,3.58-.57,6.15,2.5,8.33,1.28,2.85-10.18,5.57-20.49,7.05-32-11.09,5.79-21.26,12.5-29.48,21.15.94,3.34,4.26,4.28,7.05,5.77-7.78,14.77-11.2,33.07-9.61,51.28,3.05,35,30.51,60.33,27.56,96.79,12.15-1.25,24.81-4.32,35.9-.64,3.65,1.21,7.13,4.37,10.9,6.41,20.48,11.09,57.09,23.91,82,7.69,4.27,3,4.91,9.62,7.69,14.1,13-9,21.4-22.61,24.36-41.66-11.87,2.87-22.12,7.37-37.82,6.41a47.51,47.51,0,0,1,.64,10.26c-33,14.21-64.51-15.31-91.66-23.08,45.58-51.41,90.46-103.54,136.53-154.47,14,8.2,21.12,23.33,37.82,28.84,7.31-3.58,11-10.82,21.79-10.9,5.16-19.94-22.4-18.87-34.61-12.82-7.42-4.33-12.76-10.75-17.31-17.95C396.39,244.74,402.43,231,409.2,229.35Zm-7.05,24.36c2.58,2.56,5.92,7.75,9,7.69-2.5-4.25-1-16.66-.64-19.87C407.39,245.28,403.62,248.34,402.15,253.7Zm17.3,3.21c1.55.36,3.66.1,6.41.64.67-3,1.82-5.45,1.28-9.62-2.33-.45-3.49-2.07-5.13-3.2C419.63,247.26,419.2,251.74,419.45,256.91Zm-32,17.31c-7.46,9.42-15.92,17.84-23.08,27.56,4.12,2,8.44,3.51,12.82.64,2.08-11.38,8.94-18,19.23-21.15C394.29,278,391.6,275.36,387.4,274.22Zm1.28,24.36a8.22,8.22,0,0,0,5.13,5.13c1.24-3,5.39-3.15,5.13-7.69C395.33,290.86,391.55,296,388.68,298.57Zm-92.3,5.13c1.81,2.37,2.83,5.71-.64,7.05,3.28-.14,6.95.11,8.33-1.92-3-.94-2.33-3.4-1.28-5.77C299.94,302.56,298.95,303.91,296.39,303.7Zm54.48,13.46c2.79,1,12.66,2.21,13.46-2.56C361.46,307,352.9,310.51,350.87,317.16Z"/><path class="cls-4" d="M68.89,406.26a459.19,459.19,0,0,0,21.23,76.92l10.9-2.56c14.8,31.35,32.57,59.73,57,81.4,7.52-6.41,16.52-16.11,25.64-23.72,34.31,32.59,92,57.48,159,46.15,37.85-6.4,68.79-26.91,92.3-46.79,9.26,8.44,18.61,18.3,26.28,24.36,23.3-22.21,41.38-49.64,55.77-80.76,4.78-.51,6.53,2,10.26,2.56,10.9-20.08,14.28-47.68,18.59-74.35,4.73,4.74,6.28,9.32,8.33,14.74,3.52,9.31,7.38,19.07,9,31.41l16.66-9c-2.78,32.9-12.61,58.75-26.28,80.76-4.1-.7-7.59-2.1-10.26-2.56C514.38,573.06,478.81,618,426,640.21c-3.21-3.95-6.47-10.46-10.9-16-51.37,31.56-159.37,32-211.52-.64-3.29,4-6.47,10.85-10.9,16C138.92,616,104.1,573.46,75.38,524.83a61.21,61.21,0,0,1-10.9,1.92c-14.72-21.6-24.81-47.83-28.2-80.76,9,5,10.86,6.66,16.67,9.61l8.39-25.94m473,56.07c6,4.08,19.23,10.9,19.23,10.9l1.28,14.1c9.94-13.35,14.3-32.27,17.95-51.92-4.59,2-8.59,4.65-12.82,7-3.4-13.87-6.31-26.41-10.9-37.82C546.4,448,540,466.94,534.31,485.73ZM56.79,465.86c-4.24-2.38-6.63-4.76-12.18-7.69,2.36,13.59,6,24.76,9.61,35.25,2.18,6.39,5.53,13.62,9,17.31.42-6.3.52-10.59,1.28-15.38,18.43-9.76,12-6.39,19.23-10.26-6-18.25-10.71-38.18-16-56.41C63.88,439.53,60.38,455.43,56.79,465.86Zm41,22.43c-9.63,3.4-19.43,6.64-26.28,12.82,21.49,52,55.21,91.78,100,120.5-9.75-15.17-19.2-26-28.2-42.95,2.47-4.37,6.49-7.18,9.61-10.9C131.72,544.13,112.2,518.78,97.82,488.3ZM447.78,621c44-28.2,79.34-68.51,97.43-120.5a82.56,82.56,0,0,0-25-12.18c-13.62,30.81-33.66,55.22-53.84,79.48a101.64,101.64,0,0,0,9,10.9M310.62,593.42c-54.9,0-96.49-19.66-126.27-46.79-11.31,7.49-21.87,21.28-32,32,34.82,35.19,90,66,162.16,63.46,22.68-.78,46.78-2.87,65.38-9,16.47-5.4,33.06-14.9,47.43-23.72,15.1-9.25,29.66-19.29,39.74-31.41-9.8-11.57-21.11-21.62-32-32C403.5,570.94,366.72,593.42,310.62,593.42Z"/><path class="cls-4" d="M432.42,200.38c2.52,12.49-2.77,22.39-14.74,21.15-10-1-16.14-14.25-10.26-23.07C413.49,189.36,426.88,190.94,432.42,200.38ZM417,214.48c-.91-3.68-.35-6.37,3.85-6.41,1.85,1.14,2.1,3.88,5.13,3.85.34-2.44,1.34-4.22,1.92-6.41C424.29,194.69,406.75,208.27,417,214.48Z"/></g></g><g id="Layer_4" data-name="Layer 4"><path class="cls-4" d="M185.37,557.68a152.43,152.43,0,0,0,14.81,12.5l-3.1,4.1c-4-3-5.9-4.57-9.7-7.86l-4.14,4.78c3.67,3.18,5.54,4.71,9.36,7.62l-3.09,4.05c-3.92-3-5.84-4.56-9.6-7.82l-7.29,8.42c-2.52-2.18-3.76-3.3-6.2-5.6Z"/><path class="cls-4" d="M218.14,582.16,204.19,606.1c-2.79-1.63-4.17-2.47-6.91-4.21l14.87-23.37C214.52,580,215.72,580.75,218.14,582.16Z"/><path class="cls-4" d="M231.34,589.56c2.45.76,5.54,1.93,8.74,3.26,5.33,2.21,8.5,4.32,10.66,7.15a12.24,12.24,0,0,1,1.89,11.56c-1.55,5.07-4.85,7.93-8.7,9-4.17,1.16-9.9.35-16.23-2.33a60.71,60.71,0,0,1-8.06-4.07Zm-2.62,23.63a16.68,16.68,0,0,0,2.43,1.16c6.45,2.7,11.8,1.17,14-5,1.91-5.4-.64-9.47-6.24-11.77a18.12,18.12,0,0,0-3-1Z"/><path class="cls-4" d="M285,621.27c-4.76-.59-7.13-1-11.86-1.84L272,625.89c5.45,1,8.19,1.43,13.69,2.07l-.6,5.1a174.5,174.5,0,0,1-21.73-3.7l6.11-27a151.34,151.34,0,0,0,18.23,3.14l-.62,5.1c-4.77-.57-7.15-.94-11.89-1.82l-1.06,5.66c4.6.86,6.91,1.21,11.55,1.79Z"/><path class="cls-4" d="M301.74,606.62c2.71.11,4.07.15,6.79.16l-.11,22.44c5.34,0,8,0,13.36-.37l.32,5.25a175,175,0,0,1-21.52.2Z"/><path class="cls-4" d="M340,604.2l4.67,27.3c-3.09.53-4.65.76-7.75,1.17l-3.64-27.46C335.93,604.86,337.27,604.66,340,604.2Z"/><path class="cls-4" d="M361.5,604.65c-3.2.93-4.81,1.36-8,2.14l-1.24-5.11a150.62,150.62,0,0,0,22.13-6.89l1.89,4.91c-3.18,1.22-4.78,1.79-8,2.86l7.08,21.29c-3,1-4.51,1.47-7.54,2.34Z"/><path class="cls-4" d="M410.32,595c-4.25,2.53-6.4,3.73-10.77,6l3,5.85c5-2.59,7.52-4,12.41-6.94l2.66,4.39a173,173,0,0,1-19.9,10.64L386,589.83a150,150,0,0,0,16.71-8.9l2.65,4.4c-4.25,2.56-6.41,3.76-10.78,6l2.63,5.12c4.25-2.19,6.35-3.35,10.49-5.82Z"/><path class="cls-4" d="M415.19,573.16c1.66-1.6,4.24-3.81,7.19-6.18,3.65-2.92,6.53-4.64,9.27-5a6.78,6.78,0,0,1,6.13,2.25c2.4,2.59,1.77,6.48.11,9.07l.08.09c2.32-1,4.55-.51,6.93.76,2.92,1.56,6.22,3.43,7.47,3.72-2.5,2.34-3.76,3.48-6.33,5.71a24.27,24.27,0,0,1-6.1-3.27c-2.93-1.95-4.68-1.79-7.18.16l-1.85,1.46,6.68,8.6c-2.57,2-3.86,3-6.49,4.86Zm13,5.19c.94-.74,1.41-1.11,2.35-1.86,3-2.38,3.66-5.06,2.08-6.91s-4-1.57-6.66.51a22.73,22.73,0,0,0-2.46,2.22Z"/></g></svg>